<?xml version="1.0" encoding="UTF-8"?>
<svg width="20px" height="15px" viewBox="0 0 20 15" version="1.1" xmlns="http://www.w3.org/2000/svg" xmlns:xlink="http://www.w3.org/1999/xlink">
    <!-- Generator: Sketch 49.3 (51167) - http://www.bohemiancoding.com/sketch -->
    <title>Shape</title>
    <desc>Created with Sketch.</desc>
    <defs></defs>
    <g id="Page-1" stroke="none" stroke-width="1" fill="none" fill-rule="evenodd">
        <g id="FRONTPAGE-Copy" transform="translate(-369.000000, -492.000000)" fill="#FFFFFF" fill-rule="nonzero">
            <g id="Group-18-Copy-2" transform="translate(194.000000, 246.000000)">
                <g id="Group-4" transform="translate(0.000000, 233.000000)">
                    <g id="Group-28" transform="translate(50.000000, 10.000000)">
                        <g id="noun_688110_cc" transform="translate(125.000000, 3.000000)">
                            <g id="Group">
                                <path d="M19.868425,7.43423377 C19.8632934,7.33932468 19.8250434,7.24351948 19.7697408,7.17853247 L13.4539513,0.555151948 C13.3010697,0.397671429 13.0460303,0.402697403 12.8988329,0.543074026 C12.7492276,0.685632468 12.7321355,0.941177922 12.8743592,1.09098312 L18.5610566,7.0567013 L0.526509211,7.0567013 C0.308496053,7.0567013 0.131772368,7.23112987 0.131772368,7.44631169 C0.131772368,7.66149351 0.308496053,7.83592208 0.526509211,7.83592208 L18.5610566,7.83592208 L12.8743592,13.8018312 C12.7322145,13.9516364 12.7470961,14.2216364 12.8988329,14.3618961 C13.0506487,14.5021558 13.2887145,14.4995844 13.4539513,14.3377403 L19.7697408,7.71436364 C19.8447803,7.62319481 19.8733592,7.52922078 19.868425,7.43435065 L19.868425,7.43423377 Z" id="Shape"></path>
                            </g>
                        </g>
                    </g>
                </g>
            </g>
        </g>
    </g>
</svg>