<?xml version="1.0" encoding="UTF-8"?>
<svg width="32px" height="24px" viewBox="0 0 32 24" version="1.1" xmlns="http://www.w3.org/2000/svg" xmlns:xlink="http://www.w3.org/1999/xlink">
    <!-- Generator: Sketch 49.3 (51167) - http://www.bohemiancoding.com/sketch -->
    <title>Shape</title>
    <desc>Created with Sketch.</desc>
    <defs></defs>
    <g id="Page-1" stroke="none" stroke-width="1" fill="none" fill-rule="evenodd">
        <g id="FRONTPAGE-Copy" transform="translate(-583.000000, -1368.000000)" fill="#8091A5" fill-rule="nonzero">
            <g id="Group-27" transform="translate(583.000000, 1368.000000)">
                <g id="noun_688110_cc-copy" transform="translate(16.000000, 12.000000) scale(-1, 1) translate(-16.000000, -12.000000) ">
                    <g id="Group">
                        <path d="M31.78948,11.894774 C31.7812695,11.7429195 31.7200695,11.5896312 31.6315853,11.4856519 L21.5263221,0.888243117 C21.2817116,0.636274286 20.8736484,0.644315844 20.6381326,0.868918442 C20.3987642,1.09701195 20.3714168,1.50588468 20.5989747,1.74557299 L29.6976905,11.2907221 L0.842414737,11.2907221 C0.493593684,11.2907221 0.210835789,11.5698078 0.210835789,11.9140987 C0.210835789,12.2583896 0.493593684,12.5374753 0.842414737,12.5374753 L29.6976905,12.5374753 L20.5989747,22.0829299 C20.3715432,22.3226182 20.3953537,22.7546182 20.6381326,22.9790338 C20.8810379,23.2034494 21.2619432,23.1993351 21.5263221,22.9403844 L31.6315853,12.3429818 C31.7516484,12.1971117 31.7973747,12.0467532 31.78948,11.894961 L31.78948,11.894774 Z" id="Shape"></path>
                    </g>
                </g>
            </g>
        </g>
    </g>
</svg>