<?xml version="1.0" encoding="UTF-8"?>
<svg width="22px" height="19px" viewBox="0 0 22 19" version="1.1" xmlns="http://www.w3.org/2000/svg" xmlns:xlink="http://www.w3.org/1999/xlink">
    <!-- Generator: Sketch 49.3 (51167) - http://www.bohemiancoding.com/sketch -->
    <title>noun_683011_cc</title>
    <desc>Created with Sketch.</desc>
    <defs></defs>
    <g id="Page-1" stroke="none" stroke-width="1" fill="none" fill-rule="evenodd">
        <g id="ADMIN---my-profile" transform="translate(-224.000000, -877.000000)" fill="#283849" fill-rule="nonzero">
            <g id="Group-17" transform="translate(224.000000, 872.000000)">
                <g id="Group-18">
                    <g id="noun_683011_cc" transform="translate(0.000000, 5.000000)">
                        <path d="M20.8783956,3.87541896 L17.727007,3.87541896 L17.727007,0.360504089 C17.727007,0.161403178 17.5672194,0 17.3701114,0 L0.356895652,0 C0.159787626,0 0,0.161403178 0,0.360504089 L0,12.1345676 C0,12.3336685 0.159787626,12.4950717 0.356895652,12.4950717 L3.51185321,12.4950717 L3.51185321,15.9955664 C3.51185321,16.1946673 3.67164084,16.3560705 3.86874887,16.3560705 L16.2637349,16.3560705 L20.6999478,18.9517 C20.8105913,19.0162273 20.9469423,19.0160912 21.0574595,18.9513432 C21.1679766,18.8865952 21.2357997,18.767113 21.2352913,18.6380614 L21.2352913,4.21789784 C21.2257742,4.02586927 21.06874,3.87517848 20.8783956,3.87541896 Z M3.50828426,4.23592305 L3.50828426,11.7740635 L0.713791304,11.7740635 L0.713791304,0.721008178 L17.0132157,0.721008178 L17.0132157,3.87541896 L3.86517991,3.87541896 C3.7705253,3.87541896 3.67974749,3.91340053 3.61281657,3.98100816 C3.54588565,4.04861579 3.50828426,4.14031142 3.50828426,4.23592305 Z M20.5215,18.0288095 L16.5385445,15.6999531 C16.4841526,15.6688126 16.4226164,15.6526514 16.3600967,15.6530875 L4.22564452,15.6530875 L4.22564452,12.1417777 L4.22564452,4.59642714 L20.5215,4.59642714 L20.5215,18.0288095 Z M6.93091356,8.14018233 C6.93091356,7.94108142 7.09070118,7.77967824 7.28780921,7.77967824 L17.4593353,7.77967824 C17.6564433,7.77967824 17.8162309,7.94108142 17.8162309,8.14018233 C17.8162309,8.33928324 17.6564433,8.50068642 17.4593353,8.50068642 L7.28780921,8.50068642 C7.09070118,8.50068642 6.93091356,8.33928324 6.93091356,8.14018233 Z M6.93091356,11.7452232 C6.93091356,11.5461223 7.09070118,11.3847191 7.28780921,11.3847191 L13.8903788,11.3847191 C14.0874868,11.3847191 14.2472744,11.5461223 14.2472744,11.7452232 C14.2472744,11.9443241 14.0874868,12.1057273 13.8903788,12.1057273 L7.28780921,12.1057273 C7.09070118,12.1057273 6.93091356,11.9443241 6.93091356,11.7452232 Z" id="Shape"></path>
                    </g>
                </g>
            </g>
        </g>
    </g>
</svg>