<?xml version="1.0" encoding="UTF-8"?>
<svg width="18px" height="18px" viewBox="0 0 18 18" version="1.1" xmlns="http://www.w3.org/2000/svg" xmlns:xlink="http://www.w3.org/1999/xlink">
    <!-- Generator: Sketch 49.3 (51167) - http://www.bohemiancoding.com/sketch -->
    <title>SVGID_1_</title>
    <desc>Created with Sketch.</desc>
    <defs></defs>
    <g id="Page-1" stroke="none" stroke-width="1" fill="none" fill-rule="evenodd">
        <g id="FRONTPAGE-Copy" transform="translate(-432.000000, -3408.000000)" fill="#283849" fill-rule="nonzero">
            <g id="Group-26" transform="translate(158.000000, 1596.000000)">
                <g id="Group-7-Copy-2" transform="translate(274.000000, 1812.000000)">
                    <path d="M16,0 L2,0 C0.9,0 0,0.9 0,2 L0,16 C0,17.1 0.9,18 2,18 L9,18 L9,11 L7,11 L7,8.5 L9,8.5 L9,6.5 C9,4.3 10.2,2.8 12.8,2.8 L14.6,2.8 L14.6,5.4 L13.4,5.4 C12.4,5.4 12,6.1 12,6.8 L12,8.5 L14.6,8.5 L14,11 L12,11 L12,18 L16,18 C17.1,18 18,17.1 18,16 L18,2 C18,0.9 17.1,0 16,0 Z" id="SVGID_1_"></path>
                </g>
            </g>
        </g>
    </g>
</svg>