<?xml version="1.0" encoding="UTF-8"?>
<svg width="18px" height="18px" viewBox="0 0 18 18" version="1.1" xmlns="http://www.w3.org/2000/svg" xmlns:xlink="http://www.w3.org/1999/xlink">
    <!-- Generator: Sketch 49.3 (51167) - http://www.bohemiancoding.com/sketch -->
    <title>SVGID_1_</title>
    <desc>Created with Sketch.</desc>
    <defs></defs>
    <g id="Page-1" stroke="none" stroke-width="1" fill="none" fill-rule="evenodd">
        <g id="FRONTPAGE-Copy" transform="translate(-477.000000, -3408.000000)" fill="#283849" fill-rule="nonzero">
            <g id="Group-26" transform="translate(158.000000, 1596.000000)">
                <g id="Group-7-Copy-2" transform="translate(274.000000, 1812.000000)">
                    <path d="M59.9,4.2 C59.9,4.8 59.4,5.3 58.8,5.3 C58.2,5.3 57.7,4.8 57.7,4.2 C57.7,3.6 58.2,3.1 58.8,3.1 C59.4,3.1 59.9,3.6 59.9,4.2 Z M54,12 C52.3,12 51,10.7 51,9 C51,7.3 52.3,6 54,6 C55.7,6 57,7.3 57,9 C57,9.8 56.7,10.6 56.1,11.1 C55.6,11.7 54.8,12 54,12 Z M54,4.4 C51.4,4.4 49.4,6.4 49.4,9 C49.4,11.6 51.5,13.6 54,13.6 C56.5,13.6 58.6,11.5 58.6,9 C58.6,6.4 56.6,4.4 54,4.4 Z M61.3,12.6 C61.3,13.2 61.2,13.7 61,14.3 C60.7,15.1 60.1,15.7 59.3,16 C58.8,16.2 58.2,16.3 57.6,16.3 C56.7,16.3 56.4,16.4 54,16.4 C51.6,16.4 51.3,16.4 50.4,16.3 C49.8,16.3 49.3,16.2 48.7,16 C48.3,15.9 48,15.6 47.7,15.3 C47.4,15 47.2,14.7 47,14.3 C46.8,13.8 46.7,13.2 46.7,12.6 C46.7,11.7 46.6,11.4 46.6,9 C46.6,6.6 46.6,6.3 46.7,5.4 C46.7,4.8 46.8,4.3 47,3.7 C47.1,3.3 47.4,3 47.7,2.7 C48,2.4 48.3,2.2 48.7,2 C49.2,1.8 49.8,1.7 50.4,1.7 C51.3,1.7 51.6,1.6 54,1.6 C56.4,1.6 56.7,1.6 57.6,1.7 C58.2,1.7 58.7,1.8 59.3,2 C59.7,2.1 60,2.4 60.3,2.7 C60.6,3 60.8,3.3 61,3.7 C61.2,4.2 61.3,4.8 61.3,5.4 C61.3,6.3 61.4,6.6 61.4,9 C61.4,11.4 61.4,11.7 61.3,12.6 Z M62.9,5.3 C62.9,4.6 62.7,3.8 62.5,3.1 C62.3,2.5 61.9,2 61.5,1.5 C61.1,1 60.5,0.7 59.9,0.5 C59.2,0.2 58.5,0.1 57.7,0.1 C56.8,0 56.4,0 54,0 C51.6,0 51.2,0 50.3,0.1 C49.6,0.1 48.8,0.3 48.1,0.5 C47.5,0.7 47,1.1 46.5,1.5 C46,1.9 45.7,2.5 45.5,3.1 C45.2,3.8 45.1,4.5 45.1,5.3 C45,6.2 45,6.6 45,9 C45,11.4 45,11.8 45.1,12.7 C45.1,13.4 45.3,14.2 45.5,14.9 C45.7,15.5 46.1,16 46.5,16.5 C46.9,17 47.5,17.3 48.1,17.5 C48.8,17.8 49.5,17.9 50.3,17.9 C51.2,18 51.6,18 54,18 C56.4,18 56.8,18 57.7,17.9 C58.4,17.9 59.2,17.7 59.9,17.5 C61.1,17 62.1,16.1 62.5,14.9 C62.8,14.2 62.9,13.5 62.9,12.7 C62.9,11.7 63,11.4 63,9 C63,6.6 63,6.2 62.9,5.3 Z" id="SVGID_1_"></path>
                </g>
            </g>
        </g>
    </g>
</svg>