<?xml version="1.0" encoding="UTF-8"?>
<svg width="15px" height="16px" viewBox="0 0 15 16" version="1.1" xmlns="http://www.w3.org/2000/svg" xmlns:xlink="http://www.w3.org/1999/xlink">
    <!-- Generator: Sketch 49.3 (51167) - http://www.bohemiancoding.com/sketch -->
    <title>noun_252381_cc</title>
    <desc>Created with Sketch.</desc>
    <defs></defs>
    <g id="Page-1" stroke="none" stroke-width="1" fill="none" fill-rule="evenodd">
        <g id="ADMIN---my-profile" transform="translate(-401.000000, -878.000000)" fill="#283849" fill-rule="nonzero">
            <g id="Group-17" transform="translate(224.000000, 872.000000)">
                <g id="Group-20" transform="translate(175.000000, 0.000000)">
                    <g id="noun_252381_cc" transform="translate(9.150512, 12.954915) rotate(-48.000000) translate(-9.150512, -12.954915) translate(0.150512, 9.954915)">
                        <path d="M16.656717,2.28285962 C16.9737649,2.62002465 17.1428571,3.01338385 17.1428571,3.48166861 C17.1428571,3.96868476 17.1428571,4.45570092 17.1428571,4.94271707 C17.1217206,5.57958435 16.6778535,5.99167494 15.9592116,5.99167494 C15.5153445,6.01040633 15.0714774,5.99167494 14.6064738,5.99167494 C14.1837433,5.99167494 13.7610127,5.99167494 13.2960091,5.99167494 C12.5350941,5.99167494 12.0912271,5.59831574 12.0912271,4.92398568 C12.0912271,4.43696953 12.0700905,3.96868476 12.1123636,3.48166861 C12.1123636,3.35054888 12.0700905,3.31308609 11.9432714,3.25689192 C11.3091755,3.03211524 10.6750797,2.91972689 10.0198473,2.84480133 C8.68824611,2.7136816 7.3777814,2.75114438 6.08845322,3.01338385 C5.81367836,3.06957802 5.5389035,3.18196636 5.26412865,3.23816053 C5.11617295,3.27562331 5.0738999,3.35054888 5.0738999,3.48166861 C5.0738999,3.96868476 5.0738999,4.45570092 5.0738999,4.94271707 C5.0738999,5.59831574 4.60889629,5.99167494 3.89025435,5.99167494 C3.00252019,5.99167494 2.11478604,5.99167494 1.22705188,5.99167494 C0.487273413,5.99167494 0.0434063338,5.57958435 0.0222698063,4.92398568 C0.00113327868,4.47443231 0.0434063338,4.02487893 0.00113327868,3.57532556 C-0.0200032489,2.91972689 0.25477161,2.43271074 0.804321327,2.00188876 C1.54409979,1.42121565 2.45297048,1.04658784 3.40411422,0.765616985 C5.51776698,0.110018317 7.69482932,-0.114758369 9.93530124,0.0538241459 C11.5839504,0.184943879 13.16919,0.484646128 14.6910199,1.10278201 C15.4519349,1.38375287 16.1283038,1.73964929 16.656717,2.28285962 Z" id="Shape"></path>
                    </g>
                </g>
            </g>
        </g>
    </g>
</svg>