<?xml version="1.0" encoding="UTF-8"?>
<svg width="29px" height="29px" viewBox="0 0 29 29" version="1.1" xmlns="http://www.w3.org/2000/svg" xmlns:xlink="http://www.w3.org/1999/xlink">
    <!-- Generator: Sketch 50.2 (55047) - http://www.bohemiancoding.com/sketch -->
    <title>noun_1004059_cc</title>
    <desc>Created with Sketch.</desc>
    <defs></defs>
    <g id="Page-1" stroke="none" stroke-width="1" fill="none" fill-rule="evenodd">
        <g id="ADMIN---all-users-Copy" transform="translate(-1206.000000, -36.000000)" fill="#283849" fill-rule="nonzero">
            <g id="Group-19" transform="translate(-13.000000, -73.000000)">
                <g id="Group-16" transform="translate(13.000000, 32.000000)">
                    <g id="0-items-+-basket-ico-+-Rectangle-18" transform="translate(1163.000000, 0.000000)">
                        <g id="noun_1004059_cc" transform="translate(43.000000, 77.000000)">
                            <g id="Group">
                                <path d="M10.0895833,25.4354167 L8.39791667,25.4354167 C8.03541667,25.4354167 7.79375,25.6770833 7.79375,26.0395833 C7.79375,26.4020833 8.03541667,26.64375 8.39791667,26.64375 L10.0895833,26.64375 C10.4520833,26.64375 10.69375,26.4020833 10.69375,26.0395833 C10.69375,25.6770833 10.3916667,25.4354167 10.0895833,25.4354167 Z" id="Shape"></path>
                                <path d="M7.49166667,3.80625 L8.7,3.80625 C9.0625,3.80625 9.30416667,3.56458333 9.30416667,3.20208333 C9.30416667,2.83958333 9.0625,2.59791667 8.7,2.59791667 L7.49166667,2.59791667 C7.12916667,2.59791667 6.8875,2.83958333 6.8875,3.20208333 C6.8875,3.56458333 7.18958333,3.80625 7.49166667,3.80625 Z" id="Shape"></path>
                                <path d="M10.4520833,3.80625 L10.9958333,3.80625 C11.3583333,3.80625 11.6,3.56458333 11.6,3.20208333 C11.6,2.83958333 11.3583333,2.59791667 10.9958333,2.59791667 L10.4520833,2.59791667 C10.0895833,2.59791667 9.84791667,2.83958333 9.84791667,3.20208333 C9.84791667,3.56458333 10.0895833,3.80625 10.4520833,3.80625 Z" id="Shape"></path>
                                <path d="M26.5833333,4.28958333 L18.4875,4.28958333 L18.4875,2.41666667 C18.4875,1.0875 17.4,0 16.0708333,0 L2.41666667,0 C1.0875,0 0,1.0875 0,2.41666667 L0,26.5833333 C0,27.9125 1.0875,29 2.41666667,29 L16.0708333,29 C17.4,29 18.4875,27.9125 18.4875,26.5833333 L18.4875,18.5479167 L20.7229167,16.7354167 L26.5833333,16.7354167 C27.9125,16.7354167 29,15.6479167 29,14.31875 L29,6.70625 C29,5.37708333 27.9125,4.28958333 26.5833333,4.28958333 Z M17.2791667,26.5833333 C17.2791667,27.2479167 16.7354167,27.7916667 16.0708333,27.7916667 L2.41666667,27.7916667 C1.75208333,27.7916667 1.20833333,27.2479167 1.20833333,26.5833333 L1.20833333,2.41666667 C1.20833333,1.75208333 1.75208333,1.20833333 2.41666667,1.20833333 L16.0708333,1.20833333 C16.7354167,1.20833333 17.2791667,1.75208333 17.2791667,2.41666667 L17.2791667,4.28958333 L14.4395833,4.28958333 C13.95625,4.28958333 13.5333333,4.41041667 13.1708333,4.65208333 L2.9,4.65208333 C2.5375,4.65208333 2.29583333,4.89375 2.29583333,5.25625 L2.29583333,23.74375 C2.29583333,24.10625 2.5375,24.3479167 2.9,24.3479167 L15.6479167,24.3479167 C16.0104167,24.3479167 16.2520833,24.10625 16.2520833,23.74375 L16.2520833,20.4208333 L17.2791667,19.575 L17.2791667,26.5833333 Z M15.04375,20.9645833 C15.04375,20.9645833 15.04375,20.9645833 15.04375,20.9645833 L15.04375,23.1395833 L3.44375,23.1395833 L3.44375,5.86041667 L12.14375,5.86041667 C12.0229167,6.10208333 11.9625,6.40416667 11.9625,6.70625 L11.9625,14.2583333 C11.9625,15.5875 13.05,16.675 14.3791667,16.675 L14.6208333,16.675 L14.6208333,20.4208333 C14.68125,20.6625 14.8020833,20.84375 15.04375,20.9645833 Z M27.7916667,14.2583333 C27.7916667,14.9229167 27.2479167,15.4666667 26.5833333,15.4666667 L20.48125,15.4666667 C20.3604167,15.4666667 20.1791667,15.5270833 20.11875,15.5875 L15.8895833,19.0916667 L15.8895833,16.0708333 C15.8895833,15.7083333 15.6479167,15.4666667 15.2854167,15.4666667 L14.4395833,15.4666667 C13.775,15.4666667 13.23125,14.9229167 13.23125,14.2583333 L13.23125,6.70625 C13.23125,6.04166667 13.775,5.49791667 14.4395833,5.49791667 L26.5833333,5.49791667 C27.2479167,5.49791667 27.7916667,6.04166667 27.7916667,6.70625 L27.7916667,14.2583333 Z" id="Shape"></path>
                            </g>
                        </g>
                    </g>
                </g>
            </g>
        </g>
    </g>
</svg>