<?xml version="1.0" encoding="UTF-8"?>
<svg width="19px" height="15px" viewBox="0 0 19 15" version="1.1" xmlns="http://www.w3.org/2000/svg" xmlns:xlink="http://www.w3.org/1999/xlink">
    <!-- Generator: Sketch 49.3 (51167) - http://www.bohemiancoding.com/sketch -->
    <title>noun_22629_cc</title>
    <desc>Created with Sketch.</desc>
    <defs></defs>
    <g id="Page-1" stroke="none" stroke-width="1" fill="none" fill-rule="evenodd">
        <g id="ADMIN---my-profile" transform="translate(-342.000000, -821.000000)" fill="#283849">
            <g id="Group-21" transform="translate(224.000000, 819.000000)">
                <g id="noun_22629_cc" transform="translate(118.000000, 2.000000)">
                    <path d="M0.00264790113,9.375 C-0.0759539472,12.0314362 1.62149274,13.125 1.62149274,13.125 C1.65848568,13.1038926 2.29917447,12.7187966 2.8125,10.9569209 L0.00264790113,9.375 Z" id="Shape"></path>
                    <path d="M10.801918,0 C8.9258285,0 4.11733354,0.605847737 3.96724639,6.49012748 C3.81716158,12.3744007 1.875,13.2339841 1.875,13.2339841 C8.83928621,16.8101393 17.788377,15.3826532 16.799691,4.98110595 C16.799691,1.1336966 12.6780097,0 10.801918,0 Z M13.478665,2.77099063 C14.4980445,2.77099063 15.3251555,3.60246405 15.3251555,4.62722052 C15.3251555,5.65197681 14.4980445,6.48345042 13.478665,6.48345042 C12.4592854,6.48345042 11.6321744,5.65197681 11.6321744,4.62722052 C11.6321744,3.60246405 12.4592854,2.77099063 13.478665,2.77099063 Z" id="Shape"></path>
                    <path d="M16.9193413,5.62500035 C17.0086871,6.65285763 16.9903445,7.58548917 16.875,8.42513775 C16.8782638,8.42855898 16.8780404,8.43407877 16.8813247,8.4375 L18.75,7.00961537 L16.9193318,5.625 L16.9193413,5.62500035 Z" id="Shape"></path>
                    <path d="M14.0625,4.68750118 C14.0625,5.20526684 13.6427672,5.625 13.1250001,5.625 C12.6072333,5.625 12.1875,5.20526684 12.1875,4.68750118 C12.1875,4.16973316 12.6072333,3.75 13.1250001,3.75 C13.6427672,3.75 14.0625,4.16973316 14.0625,4.68750118 Z" id="Shape" fill-rule="nonzero"></path>
                </g>
            </g>
        </g>
    </g>
</svg>