<?xml version="1.0" encoding="utf-8"?>
<!-- Generator: Adobe Illustrator 22.0.1, SVG Export Plug-In . SVG Version: 6.00 Build 0)  -->
<svg version="1.1" id="Layer_1" xmlns="http://www.w3.org/2000/svg" xmlns:xlink="http://www.w3.org/1999/xlink" x="0px" y="0px"
	 viewBox="0 0 125 57" style="enable-background:new 0 0 125 57;" xml:space="preserve">
<style type="text/css">
	.st0{filter:url(#Adobe_OpacityMaskFilter);}
	.st1{fill:#FFFFFF;}
	.st2{mask:url(#mask-2_1_);}
	.st3{fill:#283849;}
	.st4{enable-background:new    ;}
</style>
<title>logo</title>
<desc>Created with Sketch.</desc>
<g id="logo">
	<g id="Group-7" transform="translate(1.000000, 1.000000)">
		<g id="Mask">
		</g>
		<defs>
			<filter id="Adobe_OpacityMaskFilter" filterUnits="userSpaceOnUse" x="-9.5" y="-3" width="71.2" height="70.8">
				<feColorMatrix  type="matrix" values="1 0 0 0 0  0 1 0 0 0  0 0 1 0 0  0 0 0 1 0"/>
			</filter>
		</defs>
		<mask maskUnits="userSpaceOnUse" x="-9.5" y="-3" width="71.2" height="70.8" id="mask-2_1_">
			<g class="st0">
				<rect id="path-1_1_" y="0" class="st1" width="50" height="55"/>
			</g>
		</mask>
		<g class="st2">
			<g transform="translate(-10.000000, -3.000000)">
				<polygon id="Y" class="st3" points="31.7,32.4 25.9,35.5 20,24.2 2.4,12.3 8.8,8.9 19.9,17.2 19.2,3.4 25.5,0 25.7,21.2 				"/>
				<polygon id="N" class="st3" points="35,33.5 35,2 46,2 53.7,27.9 54.2,27.9 54.2,2 60.7,2 60.7,33.5 50,33.5 42,7.6 41.5,7.6 
					41.5,33.5 				"/>
				<path id="A" class="st3" d="M36.4,40.9l32.3-0.6l3,12L42.8,66.9l-1.6-6.3l5.2-2.6l-2.7-10.9l-5.8,0.1L36.4,40.9z M64.8,46.4
					l-15.3,0.5l2.1,8.5l13.7-6.8L64.8,46.4z"/>
				<path id="D" class="st3" d="M25.9,65.2l-9.2,5.6l-16.2-27l9.2-5.6c2.4-1.4,4.5-2.4,6.3-2.8s3.5-0.3,5,0.3
					c1.5,0.6,2.9,1.6,4.1,2.9c1.2,1.3,2.6,3.2,4,5.6c1.5,2.4,2.5,4.5,3.2,6.3s1,3.5,0.9,5.3c-0.1,1.8-0.7,3.4-1.9,4.9
					C30.2,62.3,28.4,63.8,25.9,65.2z M25.4,51c-0.5-0.9-1.1-2.1-2-3.6c-0.9-1.5-1.7-2.7-2.3-3.5c-0.6-0.8-1.4-1.5-2.2-2
					c-0.8-0.5-1.8-0.6-2.7-0.4c-1,0.2-2.1,0.7-3.5,1.5l-3.7,2.2l10.5,17.5l3.7-2.2c2-1.2,3.2-2.6,3.5-4.2C26.9,55,26.5,53.2,25.4,51
					z"/>
			</g>
		</g>
	</g>
	<g class="st4">
		<path class="st3" d="M68,10.2h-1.4V6.7L64,1.8h1.5l1.8,3.6L69,1.8h1.5L68,6.7V10.2z"/>
		<path class="st3" d="M76.9,9.3c-0.5,0.7-1.4,1-2.6,1c-1.3,0-2.1-0.3-2.7-1c-0.5-0.7-0.8-1.8-0.8-3.2c0-1.5,0.3-2.6,0.8-3.3
			s1.4-1.1,2.6-1.1c1.3,0,2.1,0.4,2.6,1.1c0.5,0.7,0.8,1.8,0.8,3.3S77.4,8.6,76.9,9.3z M72.7,8.4c0.3,0.5,0.8,0.7,1.6,0.7
			c0.8,0,1.3-0.2,1.6-0.7c0.3-0.5,0.4-1.3,0.4-2.4c0-1.1-0.1-1.9-0.4-2.4c-0.3-0.5-0.8-0.8-1.6-0.8c-0.8,0-1.3,0.3-1.6,0.8
			c-0.3,0.5-0.4,1.3-0.4,2.4S72.4,7.9,72.7,8.4z"/>
		<path class="st3" d="M80.5,7.5c0,1.1,0.6,1.6,1.7,1.6c1.1,0,1.7-0.5,1.7-1.6V1.8h1.4v5.7c0,1-0.3,1.7-0.8,2.2
			c-0.5,0.5-1.3,0.7-2.3,0.7s-1.8-0.2-2.3-0.7c-0.5-0.5-0.8-1.2-0.8-2.2V1.8h1.4V7.5z"/>
		<path class="st3" d="M87.2,10.2V1.8h2.4L92.1,9h0.2V1.8h1.4v8.4h-2.3L88.7,3h-0.2v7.2H87.2z"/>
		<path class="st3" d="M99,7V5.8h2.4V10c-0.2,0.1-0.7,0.1-1.3,0.2c-0.7,0.1-1.2,0.1-1.5,0.1c-1.3,0-2.1-0.4-2.6-1.1
			c-0.5-0.7-0.7-1.8-0.7-3.3s0.2-2.6,0.7-3.3c0.5-0.7,1.3-1,2.6-1c0.7,0,1.5,0.1,2.4,0.2l0.4,0.1l0,1.1c-1-0.1-1.9-0.2-2.7-0.2
			c-0.8,0-1.3,0.2-1.6,0.7C96.8,4,96.6,4.8,96.6,6s0.1,2,0.4,2.5c0.3,0.5,0.8,0.7,1.7,0.7c0.6,0,1,0,1.3-0.1V7H99z"/>
	</g>
	<g class="st4">
		<path class="st3" d="M64.9,25.4v-8.4h2.4l2.5,7.2H70v-7.2h1.4v8.4H69l-2.6-7.2h-0.2v7.2H64.9z"/>
		<path class="st3" d="M78.9,24.6c-0.5,0.7-1.4,1-2.6,1s-2.1-0.3-2.7-1c-0.5-0.7-0.8-1.8-0.8-3.2c0-1.5,0.3-2.6,0.8-3.3
			s1.4-1.1,2.6-1.1s2.1,0.4,2.6,1.1s0.8,1.8,0.8,3.3S79.4,23.9,78.9,24.6z M74.7,23.7c0.3,0.5,0.8,0.7,1.6,0.7s1.3-0.2,1.6-0.7
			c0.3-0.5,0.4-1.3,0.4-2.4c0-1.1-0.1-1.9-0.4-2.4c-0.3-0.5-0.8-0.8-1.6-0.8c-0.8,0-1.3,0.3-1.6,0.8c-0.3,0.5-0.4,1.3-0.4,2.4
			C74.3,22.4,74.4,23.2,74.7,23.7z"/>
		<path class="st3" d="M82.6,22.5v3h-1.4v-8.4h3.2c1.9,0,2.8,0.9,2.8,2.7c0,1.2-0.5,2-1.4,2.4l1.4,3.3h-1.5l-1.2-3H82.6z M85.9,19.8
			c0-1-0.5-1.5-1.4-1.5h-1.8v3h1.8c0.5,0,0.8-0.1,1.1-0.4C85.8,20.6,85.9,20.2,85.9,19.8z"/>
		<path class="st3" d="M91.7,25.4h-2.9v-8.4h2.9c1.3,0,2.2,0.3,2.6,1c0.5,0.7,0.7,1.7,0.7,3.1c0,0.7,0,1.3-0.1,1.8
			c-0.1,0.5-0.3,0.9-0.5,1.3C94,25.1,93.1,25.4,91.7,25.4z M93.7,21.1c0-1-0.1-1.7-0.4-2.2c-0.3-0.4-0.8-0.7-1.6-0.7h-1.5v6h1.5
			c0.8,0,1.3-0.3,1.6-0.9c0.1-0.3,0.2-0.6,0.3-1C93.6,22.1,93.7,21.6,93.7,21.1z"/>
		<path class="st3" d="M96.7,25.4v-8.4H98v8.4H96.7z"/>
		<path class="st3" d="M102.8,25.6c-1.2,0-2.1-0.3-2.5-1s-0.7-1.8-0.7-3.3c0-1.5,0.2-2.7,0.7-3.3c0.4-0.7,1.3-1,2.5-1
			c0.7,0,1.5,0.1,2.4,0.3l0,1.1c-0.7-0.1-1.5-0.2-2.2-0.2c-0.7,0-1.2,0.2-1.5,0.7c-0.3,0.4-0.4,1.3-0.4,2.5c0,1.2,0.1,2,0.4,2.5
			c0.3,0.4,0.7,0.7,1.5,0.7c0.7,0,1.5-0.1,2.2-0.2l0,1.1C104.3,25.5,103.5,25.6,102.8,25.6z"/>
	</g>
	<g class="st4">
		<path class="st3" d="M64.1,40.7l2.1-8.4h2.7l2.1,8.4h-1.4l-0.5-1.8H66l-0.5,1.8H64.1z M67.3,33.5l-1,4.2h2.7l-1-4.2H67.3z"/>
		<path class="st3" d="M73.5,37.7v3h-1.4v-8.4h3.2c1.9,0,2.8,0.9,2.8,2.7c0,1.2-0.5,2-1.4,2.4l1.4,3.3h-1.5l-1.2-3H73.5z M76.8,35
			c0-1-0.5-1.5-1.4-1.5h-1.8v3h1.8c0.5,0,0.8-0.1,1.1-0.4C76.7,35.9,76.8,35.5,76.8,35z"/>
		<path class="st3" d="M78.9,33.6v-1.2H85v1.2h-2.4v7.2h-1.4v-7.2H78.9z"/>
		<path class="st3" d="M86.1,40.7v-8.4h1.4v8.4H86.1z"/>
		<path class="st3" d="M91.9,33.4c-1,0-1.6,0.4-1.6,1.1c0,0.4,0.1,0.6,0.4,0.8c0.2,0.2,0.8,0.4,1.6,0.6c0.8,0.2,1.4,0.5,1.8,0.8
			c0.3,0.3,0.5,0.8,0.5,1.5c0,0.9-0.3,1.5-0.8,2c-0.5,0.4-1.2,0.7-2,0.7c-0.7,0-1.5-0.1-2.3-0.2L89,40.5l0.1-1.1
			c1.1,0.1,1.9,0.2,2.5,0.2c1,0,1.5-0.4,1.5-1.3c0-0.4-0.1-0.6-0.3-0.8c-0.2-0.2-0.7-0.4-1.5-0.5c-0.8-0.2-1.4-0.5-1.8-0.8
			c-0.4-0.4-0.6-0.9-0.6-1.7c0-0.8,0.2-1.3,0.7-1.7c0.5-0.4,1.2-0.6,2-0.6c0.6,0,1.4,0.1,2.2,0.2l0.4,0.1l-0.1,1.1
			C93.1,33.5,92.3,33.4,91.9,33.4z"/>
		<path class="st3" d="M95.2,33.6v-1.2h6.1v1.2H99v7.2h-1.4v-7.2H95.2z"/>
		<path class="st3" d="M104.9,33.4c-1,0-1.6,0.4-1.6,1.1c0,0.4,0.1,0.6,0.4,0.8c0.2,0.2,0.8,0.4,1.6,0.6c0.8,0.2,1.4,0.5,1.8,0.8
			c0.3,0.3,0.5,0.8,0.5,1.5c0,0.9-0.3,1.5-0.8,2c-0.5,0.4-1.2,0.7-2,0.7c-0.7,0-1.5-0.1-2.3-0.2l-0.4-0.1l0.1-1.1
			c1.1,0.1,1.9,0.2,2.5,0.2c1,0,1.5-0.4,1.5-1.3c0-0.4-0.1-0.6-0.3-0.8c-0.2-0.2-0.7-0.4-1.5-0.5c-0.8-0.2-1.4-0.5-1.8-0.8
			c-0.4-0.4-0.6-0.9-0.6-1.7c0-0.8,0.2-1.3,0.7-1.7c0.5-0.4,1.2-0.6,2-0.6c0.6,0,1.4,0.1,2.2,0.2l0.4,0.1l-0.1,1.1
			C106.2,33.5,105.4,33.4,104.9,33.4z"/>
		<path class="st3" d="M113,32.6c0.4-0.3,1-0.5,1.7-0.5c0.7,0,1.3,0.2,1.7,0.5c0.4,0.3,0.6,0.8,0.6,1.4c0,0.6-0.1,1-0.4,1.4
			c-0.3,0.3-0.7,0.7-1.4,1.1l1.5,1.5c0.1-0.2,0.1-0.4,0.2-0.8c0.1-0.4,0.1-0.7,0.1-0.9l1.3,0c-0.1,1-0.3,1.8-0.6,2.5l1.5,1.3
			l-0.8,0.9l-1.4-1.2c-0.3,0.4-0.6,0.7-1.1,0.9c-0.4,0.2-0.9,0.3-1.5,0.3c-1.1,0-2-0.2-2.4-0.6c-0.5-0.4-0.7-1.1-0.7-1.9
			c0-0.7,0.1-1.2,0.4-1.6c0.3-0.4,0.7-0.7,1.4-0.9c-0.3-0.4-0.5-0.7-0.6-0.9c-0.1-0.3-0.1-0.6-0.1-1C112.3,33.3,112.5,32.9,113,32.6
			z M114.3,39.7c0.4,0,0.7-0.1,1.1-0.2c0.3-0.1,0.6-0.3,0.7-0.6l-2.3-2.3c-0.4,0.2-0.7,0.4-0.9,0.6c-0.2,0.2-0.3,0.6-0.3,1
			C112.6,39.2,113.2,39.7,114.3,39.7z M113.7,34.2c0,0.4,0.2,0.8,0.6,1.2l0.3,0.3c0.4-0.2,0.7-0.5,0.9-0.7c0.2-0.2,0.3-0.5,0.3-0.8
			c0-0.6-0.3-0.9-1-0.9S113.7,33.5,113.7,34.2z"/>
	</g>
	<g class="st4">
		<path class="st3" d="M67.8,56h-2.9v-8.4h2.9c1.3,0,2.2,0.3,2.6,1c0.5,0.7,0.7,1.7,0.7,3.1c0,0.7,0,1.3-0.1,1.8
			c-0.1,0.5-0.3,0.9-0.5,1.3C70,55.6,69.1,56,67.8,56z M69.7,51.7c0-1-0.1-1.7-0.4-2.2c-0.3-0.4-0.8-0.7-1.6-0.7h-1.5v6h1.5
			c0.8,0,1.3-0.3,1.6-0.9c0.1-0.3,0.2-0.6,0.3-1C69.7,52.6,69.7,52.2,69.7,51.7z"/>
		<path class="st3" d="M72.7,56v-8.4H78v1.2h-3.9v2.4h3.2v1.2h-3.2v2.4H78V56H72.7z"/>
		<path class="st3" d="M81.9,48.7c-1,0-1.6,0.4-1.6,1.1c0,0.4,0.1,0.6,0.4,0.8c0.2,0.2,0.8,0.4,1.6,0.6c0.8,0.2,1.4,0.5,1.8,0.8
			c0.3,0.3,0.5,0.8,0.5,1.5c0,0.9-0.3,1.5-0.8,2c-0.5,0.4-1.2,0.7-2,0.7c-0.7,0-1.5-0.1-2.3-0.2l-0.4-0.1l0.1-1.1
			c1.1,0.1,1.9,0.2,2.5,0.2c1,0,1.5-0.4,1.5-1.3c0-0.4-0.1-0.6-0.3-0.8c-0.2-0.2-0.7-0.4-1.5-0.5c-0.8-0.2-1.4-0.5-1.8-0.8
			c-0.4-0.4-0.6-0.9-0.6-1.7c0-0.8,0.2-1.3,0.7-1.7c0.5-0.4,1.2-0.6,2-0.6c0.6,0,1.4,0.1,2.2,0.2l0.4,0.1l-0.1,1.1
			C83.2,48.7,82.4,48.7,81.9,48.7z"/>
		<path class="st3" d="M86.1,56v-8.4h1.4V56H86.1z"/>
		<path class="st3" d="M92.8,52.8v-1.2h2.4v4.3C95,55.9,94.5,56,93.8,56c-0.7,0.1-1.2,0.1-1.5,0.1c-1.3,0-2.1-0.4-2.6-1.1
			c-0.5-0.7-0.7-1.8-0.7-3.3c0-1.5,0.2-2.6,0.7-3.3c0.5-0.7,1.3-1,2.6-1c0.7,0,1.5,0.1,2.4,0.2l0.4,0.1l0,1.1
			c-1-0.1-1.9-0.2-2.7-0.2c-0.8,0-1.3,0.2-1.6,0.7c-0.3,0.4-0.4,1.3-0.4,2.4s0.1,2,0.4,2.5c0.3,0.5,0.8,0.7,1.7,0.7
			c0.6,0,1,0,1.3-0.1v-2H92.8z"/>
		<path class="st3" d="M96.9,56v-8.4h2.4l2.5,7.2h0.2v-7.2h1.4V56H101l-2.6-7.2h-0.2V56H96.9z"/>
		<path class="st3" d="M105.3,56v-8.4h5.3v1.2h-3.9v2.4h3.2v1.2h-3.2v2.4h3.9V56H105.3z"/>
		<path class="st3" d="M113.4,53v3H112v-8.4h3.2c1.9,0,2.8,0.9,2.8,2.7c0,1.2-0.5,2-1.4,2.4L118,56h-1.5l-1.2-3H113.4z M116.6,50.3
			c0-1-0.5-1.5-1.4-1.5h-1.8v3h1.8c0.5,0,0.8-0.1,1.1-0.4C116.5,51.1,116.6,50.8,116.6,50.3z"/>
		<path class="st3" d="M122,48.7c-1,0-1.6,0.4-1.6,1.1c0,0.4,0.1,0.6,0.4,0.8c0.2,0.2,0.8,0.4,1.6,0.6c0.8,0.2,1.4,0.5,1.8,0.8
			c0.3,0.3,0.5,0.8,0.5,1.5c0,0.9-0.3,1.5-0.8,2c-0.5,0.4-1.2,0.7-2,0.7c-0.7,0-1.5-0.1-2.3-0.2l-0.4-0.1l0.1-1.1
			c1.1,0.1,1.9,0.2,2.5,0.2c1,0,1.5-0.4,1.5-1.3c0-0.4-0.1-0.6-0.3-0.8c-0.2-0.2-0.7-0.4-1.5-0.5c-0.8-0.2-1.4-0.5-1.8-0.8
			c-0.4-0.4-0.6-0.9-0.6-1.7c0-0.8,0.2-1.3,0.7-1.7c0.5-0.4,1.2-0.6,2-0.6c0.6,0,1.4,0.1,2.2,0.2l0.4,0.1l-0.1,1.1
			C123.3,48.7,122.5,48.7,122,48.7z"/>
	</g>
</g>
</svg>
