<?xml version="1.0" encoding="UTF-8"?>
<svg width="52px" height="57px" viewBox="0 0 52 57" version="1.1" xmlns="http://www.w3.org/2000/svg" xmlns:xlink="http://www.w3.org/1999/xlink">
    <!-- Generator: Sketch 49.3 (51167) - http://www.bohemiancoding.com/sketch -->
    <title>logo</title>
    <desc>Created with Sketch.</desc>
    <defs>
        <rect id="path-1" x="0" y="0" width="50" height="55"></rect>
    </defs>
    <g id="logo" stroke="none" stroke-width="1" fill="none" fill-rule="evenodd">
        <g id="Group-7" transform="translate(1.000000, 1.000000)">
            <mask id="mask-2" fill="white">
                <use xlink:href="#path-1"></use>
            </mask>
            <g id="Mask"></g>
            <g mask="url(#mask-2)" fill="#283849">
                <g transform="translate(-10.000000, -3.000000)">
                    <polygon id="Y" transform="translate(21.369995, 20.068734) rotate(-28.000000) translate(-21.369995, -20.068734) " points="24.6663587 35.8130489 18.1678133 35.8130489 18.1678133 23.0786765 8.27872235 4.32441891 15.4836314 4.32441891 21.3699951 16.8735641 27.2563587 4.32441891 34.4612678 4.32441891 24.6663587 23.0786765"></polygon>
                    <polygon id="N" transform="translate(47.832273, 17.744315) rotate(-360.000000) translate(-47.832273, -17.744315) " points="35 33.48863 35 2 45.9721818 2 53.6950909 27.931813 54.166 27.931813 54.166 2 60.6645455 2 60.6645455 33.48863 49.9749091 33.48863 41.9694545 7.55681706 41.4985455 7.55681706 41.4985455 33.48863"></polygon>
                    <path d="M41.5079272,65.8212721 L48.7128363,34.3326421 L61.0506544,34.3326421 L68.2555635,65.8212721 L61.7570181,65.8212721 L60.4855635,60.1255346 L49.2779272,60.1255346 L48.0064726,65.8212721 L41.5079272,65.8212721 Z M53.7515635,39.6116183 L50.5022908,54.5687176 L59.2611999,54.5687176 L56.0119272,39.6116183 L53.7515635,39.6116183 Z" id="A" transform="translate(54.881745, 50.076957) rotate(76.000000) translate(-54.881745, -50.076957) "></path>
                    <path d="M17.6321818,66.7432322 L6.84836364,66.7432322 L6.84836364,35.2546021 L17.6321818,35.2546021 C20.3948623,35.2546021 22.6709001,35.5401579 24.4603636,36.1112781 C26.2498271,36.6823983 27.6389951,37.6239606 28.6279091,38.9359934 C29.6168231,40.2480262 30.2996345,41.7915711 30.6763636,43.5666743 C31.0530928,45.3417775 31.2414545,47.6493771 31.2414545,50.4895422 C31.2414545,53.3297074 31.0687896,55.6836133 30.7234545,57.5513306 C30.3781195,59.4190479 29.7267018,61.0860763 28.7691818,62.552466 C27.8116619,64.0188556 26.422494,65.0839015 24.6016364,65.7476358 C22.7807788,66.41137 20.4576505,66.7432322 17.6321818,66.7432322 Z M24.4603636,54.2403938 C24.5231518,53.2525102 24.5545455,51.886473 24.5545455,50.1422412 C24.5545455,48.3980093 24.4917582,47.0011012 24.3661818,45.951475 C24.2406054,44.9018487 23.942366,43.9448509 23.4714545,43.0804528 C23.0005431,42.2160547 22.3020349,41.62179 21.3759091,41.2976407 C20.4497832,40.9734914 19.2018866,40.8114192 17.6321818,40.8114192 L13.3469091,40.8114192 L13.3469091,61.1864151 L17.6321818,61.1864151 C19.986739,61.1864151 21.6976916,60.599868 22.7650909,59.4267564 C23.6755197,58.4697442 24.240605,56.7409739 24.4603636,54.2403938 Z" id="D" transform="translate(19.044909, 50.998917) rotate(-31.000000) translate(-19.044909, -50.998917) "></path>
                </g>
            </g>
        </g>
    </g>
</svg>